# 3ds Max Wavefront OBJ Exporter v0.97b - (c)2007 guruware
# File Created: 14.04.2014 14:19:04

mtllib Building.mtl

#
# object Box001
#

v  -4.0000 9.0606 1.5154
v  4.0000 9.0606 1.5154
v  4.0000 9.0606 -1.5154
v  -4.0000 9.0606 -1.5154
v  4.0000 0.0000 7.7975
v  4.0000 2.4917 7.7975
v  -4.0000 2.4917 7.7975
v  -4.0000 0.0000 7.7975
v  4.0000 2.4917 1.5154
v  4.0000 2.4917 -1.5154
v  -4.0000 0.0000 -7.7975
v  -4.0000 2.4917 -7.7975
v  4.0000 2.4917 -7.7975
v  4.0000 0.0000 -7.7975
v  -4.0000 2.4917 -1.5154
v  -4.0000 2.4917 1.5154
v  -4.0000 9.0606 7.7975
v  4.0000 9.0606 7.7975
v  4.0000 9.0606 -7.7975
v  -4.0000 9.0606 -7.7975
v  4.0000 0.0000 -1.5154
v  -4.0000 0.0000 1.5154
v  4.0000 0.0000 1.5154
v  -4.0000 0.0000 -1.5154
v  3.6464 8.7071 -1.5154
v  3.6464 8.7071 1.5154
v  -3.6464 8.7071 1.5154
v  -3.6464 8.7071 -1.5154
v  -3.6464 2.4917 7.4439
v  3.6464 2.4917 7.4439
v  3.6464 0.0000 7.4439
v  -3.6464 0.0000 7.4439
v  3.5000 2.4917 -1.5154
v  3.5000 2.4917 1.5154
v  3.6464 2.4917 -7.4439
v  -3.6464 2.4917 -7.4439
v  -3.6464 0.0000 -7.4439
v  3.6464 0.0000 -7.4439
v  -3.5000 2.4917 1.5154
v  -3.5000 2.4917 -1.5154
v  3.7113 8.7719 7.5088
v  -3.7113 8.7719 7.5088
v  -3.7113 8.7719 -7.5088
v  3.7113 8.7719 -7.5088
v  3.5000 0.0000 -1.5154
v  -3.5000 0.0000 1.5154
v  3.5000 0.0000 1.5154
v  -3.5000 0.0000 -1.5154
# 48 vertices

vn 0.0000 1.0000 -0.0000
vn 0.0000 0.0000 1.0000
vn 1.0000 0.0000 -0.0000
vn 0.0000 0.0000 -1.0000
vn -1.0000 0.0000 -0.0000
vn 0.0000 -1.0000 -0.0054
vn 0.0000 -1.0000 0.0054
vn 0.0000 0.0052 -1.0000
vn -0.9999 0.0100 -0.0106
vn -0.9999 0.0100 0.0106
vn -0.9997 0.0236 0.0053
vn -0.9997 0.0236 -0.0053
vn 0.0000 0.0052 1.0000
vn 0.9998 0.0134 0.0142
vn 0.9998 0.0134 -0.0142
vn 0.9997 0.0236 -0.0053
vn 0.9997 0.0236 0.0053
vn 0.0000 -0.9999 0.0108
vn 0.0000 -0.9999 -0.0108
vn -0.9997 0.0051 0.0247
vn -0.9997 0.0170 0.0174
vn -0.9997 0.0051 -0.0247
vn -0.9997 0.0000 -0.0247
vn -0.9999 0.0000 -0.0123
vn 0.9997 0.0051 -0.0247
vn 0.9997 0.0170 -0.0174
vn 0.9997 0.0051 0.0247
vn 0.9997 0.0000 0.0247
vn 0.0000 0.0103 -0.9999
vn -0.9999 0.0000 0.0123
vn 0.0000 0.0103 0.9999
vn -0.9997 0.0000 0.0247
vn -0.9997 0.0170 -0.0174
vn 0.9997 0.0000 -0.0247
vn 0.9997 0.0170 0.0174
vn 0.0000 -1.0000 -0.0000
# 36 vertex normals

vt 0.0000 0.4028 0.0000
vt 1.0000 0.4028 0.0000
vt 1.0000 0.5972 0.0000
vt 0.0000 0.5972 0.0000
vt 1.0000 0.0000 0.0000
vt 1.0000 0.2750 0.0000
vt 0.0000 0.2750 0.0000
vt 0.0000 0.0000 0.0000
vt 0.4028 1.0000 0.0000
vt 0.4028 0.2750 0.0000
vt 0.5972 0.2750 0.0000
vt 0.5972 1.0000 0.0000
vt 1.0000 1.0000 0.0000
vt 0.0000 1.0000 0.0000
vt 0.5972 0.0000 0.0000
vt 0.4028 0.0000 0.0000
# 16 texture coords

g Box001
usemtl wire_213154229
s 4
f 1/1/1 2/2/1 3/3/1 4/4/1 
s 8
f 5/5/2 6/6/2 7/7/2 8/8/2 
s 16
f 2/9/3 9/10/3 10/11/3 3/12/3 
s 32
f 11/5/4 12/6/4 13/7/4 14/8/4 
s 64
f 4/9/5 15/10/5 16/11/5 1/12/5 
s 4
f 17/8/1 18/5/1 2/2/1 1/1/1 
f 19/13/1 20/14/1 4/4/1 3/3/1 
s 16
f 18/14/3 6/7/3 9/10/3 2/9/3 
f 14/5/3 13/6/3 10/11/3 21/15/3 
s 64
f 20/14/5 12/7/5 15/10/5 4/9/5 
f 8/5/5 7/6/5 16/11/5 22/15/5 
s 8
f 18/13/2 17/14/2 7/7/2 6/6/2 
s 16
f 23/16/3 21/15/3 10/11/3 9/10/3 
s 32
f 20/13/4 19/14/4 13/7/4 12/6/4 
s 16
f 5/8/3 23/16/3 9/10/3 6/7/3 
f 19/13/3 3/12/3 10/11/3 13/6/3 
s 64
f 11/8/5 24/16/5 15/10/5 12/7/5 
f 17/13/5 1/12/5 16/11/5 7/6/5 
s 4
f 25/3/6 26/2/7 27/1/7 28/4/6 
s 8
f 29/7/8 30/6/8 31/5/4 32/8/4 
s 16
f 33/11/9 34/10/10 26/9/11 25/12/12 
s 32
f 35/7/13 36/6/13 37/5/2 38/8/2 
s 64
f 39/11/14 40/10/15 28/9/16 27/12/17 
s 4
f 26/2/7 41/5/18 42/8/18 27/1/7 
f 28/4/6 43/14/19 44/13/19 25/3/6 
s 16
f 34/10/10 30/7/20 41/14/21 26/9/11 
f 33/11/9 35/6/22 38/5/23 45/15/24 
s 64
f 40/10/15 36/7/25 43/14/26 28/9/16 
f 39/11/14 29/6/27 32/5/28 46/15/28 
s 8
f 29/7/8 42/14/29 41/13/29 30/6/8 
s 16
f 33/11/9 45/15/24 47/16/30 34/10/10 
s 32
f 35/7/13 44/14/31 43/13/31 36/6/13 
s 16
f 34/10/10 47/16/30 31/8/32 30/7/20 
f 33/11/9 25/12/12 44/13/33 35/6/22 
s 64
f 40/10/15 48/16/34 37/8/34 36/7/25 
f 39/11/14 27/12/17 42/13/35 29/6/27 
s 1
f 5/5/36 8/8/36 32/8/36 31/5/36 
f 11/5/36 14/8/36 38/8/36 37/5/36 
f 16/11/36 15/10/36 40/10/36 39/11/36 
f 14/5/36 21/15/36 45/15/36 38/5/36 
s 2
f 22/15/4 16/11/4 39/11/4 46/15/4 
s 1
f 8/5/36 22/15/36 46/15/36 32/5/36 
f 21/15/36 23/16/36 47/16/36 45/15/36 
f 23/16/36 5/8/36 31/8/36 47/16/36 
f 24/16/36 11/8/36 37/8/36 48/16/36 
s 2
f 15/10/2 24/16/2 48/16/2 40/10/2 
# 46 polygons

