# 3ds Max Wavefront OBJ Exporter v0.97b - (c)2007 guruware
# File Created: 20.04.2014 21:10:37

mtllib Building_Tall.mtl

#
# object Box001
#

v  -2.0000 8.0000 0.6667
v  2.0000 8.0000 0.6667
v  2.0000 8.0000 -0.6667
v  -2.0000 8.0000 -0.6667
v  -2.0000 2.0000 2.0000
v  -2.0000 0.0000 2.0000
v  2.0000 0.0000 2.0000
v  2.0000 2.0000 2.0000
v  2.0000 2.0000 0.6667
v  2.0000 0.0000 0.6667
v  2.0000 0.0000 -0.6667
v  2.0000 2.0000 -0.6667
v  2.0000 2.0000 -2.0000
v  2.0000 0.0000 -2.0000
v  -2.0000 0.0000 -2.0000
v  -2.0000 2.0000 -2.0000
v  2.0000 8.0000 -2.0000
v  -2.0000 8.0000 -2.0000
v  -2.0000 8.0000 2.0000
v  2.0000 8.0000 2.0000
v  -2.0000 2.0000 0.6667
v  -2.0000 0.0000 0.6667
v  -2.0000 2.0000 -0.6667
v  -2.0000 0.0000 -0.6667
v  1.7651 7.8073 -0.6667
v  1.7651 7.8073 0.6667
v  -1.7651 7.8073 0.6667
v  -1.7651 7.8073 -0.6667
v  1.7651 0.0000 1.8008
v  -1.7651 0.0000 1.8008
v  -1.7651 2.0000 1.8008
v  1.7651 2.0000 1.8008
v  1.7651 0.0000 -0.6667
v  1.7651 0.0000 0.6667
v  1.7651 2.0000 0.6667
v  1.7651 2.0000 -0.6667
v  -1.7651 0.0000 -1.8008
v  1.7651 0.0000 -1.8008
v  1.7651 2.0000 -1.8008
v  -1.7651 2.0000 -1.8008
v  1.7651 7.8073 -1.8008
v  -1.7651 7.8073 -1.8008
v  -1.7651 7.8073 1.8008
v  1.7651 7.8073 1.8008
v  -1.7651 0.0000 0.6667
v  -1.7651 2.0000 0.6667
v  -1.7651 2.0000 -0.6667
v  -1.7651 0.0000 -0.6667
# 48 vertices

vn 0.0000 1.0000 -0.0000
vn 0.0000 0.0000 1.0000
vn 1.0000 0.0000 -0.0000
vn 0.0000 0.0000 -1.0000
vn -1.0000 0.0000 -0.0000
vn 0.0000 -1.0000 -0.0000
vn 0.0000 -0.0000 -1.0000
# 7 vertex normals

vt 0.8047 0.2883 0.0000
vt 0.9900 0.2883 0.0000
vt 0.9900 0.3501 0.0000
vt 0.8047 0.3501 0.0000
vt 0.5045 0.1953 0.0000
vt 0.4118 0.1953 0.0000
vt 0.4118 0.0100 0.0000
vt 0.5045 0.0100 0.0000
vt 0.1026 0.5666 0.0000
vt 0.0100 0.5666 0.0000
vt 0.0100 0.5049 0.0000
vt 0.1026 0.5049 0.0000
vt 0.1026 0.4118 0.0000
vt 0.0100 0.4118 0.0000
vt 0.0100 0.2266 0.0000
vt 0.1026 0.2266 0.0000
vt 0.9900 0.4118 0.0000
vt 0.8047 0.4118 0.0000
vt 0.8047 0.2266 0.0000
vt 0.9900 0.2266 0.0000
vt 0.0100 0.4431 0.0000
vt 0.1026 0.4431 0.0000
vt 0.3805 0.5666 0.0000
vt 0.3805 0.6284 0.0000
vt 0.1026 0.6284 0.0000
vt 0.1026 0.0718 0.0000
vt 0.0100 0.0718 0.0000
vt 0.0100 0.0100 0.0000
vt 0.1026 0.0100 0.0000
vt 0.1026 0.1335 0.0000
vt 0.3805 0.1335 0.0000
vt 0.3805 0.1953 0.0000
vt 0.1026 0.1953 0.0000
vt 0.7824 0.0100 0.0000
vt 0.7824 0.1953 0.0000
vt 0.3805 0.5049 0.0000
vt 0.3805 0.2266 0.0000
vt 0.3805 0.4118 0.0000
vt 0.3805 0.0718 0.0000
vt 0.3805 0.4431 0.0000
vt 0.0100 0.6284 0.0000
vt 0.3805 0.0100 0.0000
vt 0.0100 0.1953 0.0000
vt 0.0100 0.1335 0.0000
vt 0.8483 0.6597 0.0000
vt 0.9101 0.6597 0.0000
vt 0.9101 0.8232 0.0000
vt 0.8483 0.8232 0.0000
vt 0.4118 0.6066 0.0000
vt 0.4118 0.4431 0.0000
vt 0.5045 0.4431 0.0000
vt 0.5045 0.6066 0.0000
vt 0.4118 0.3408 0.0000
vt 0.4118 0.2791 0.0000
vt 0.5045 0.2791 0.0000
vt 0.5045 0.3408 0.0000
vt 0.4029 0.8232 0.0000
vt 0.4029 0.6597 0.0000
vt 0.4955 0.6597 0.0000
vt 0.4955 0.8232 0.0000
vt 0.7958 0.6597 0.0000
vt 0.7958 0.8232 0.0000
vt 0.9626 0.8232 0.0000
vt 0.9626 0.6597 0.0000
vt 0.4118 0.3934 0.0000
vt 0.5045 0.3934 0.0000
vt 0.7734 0.2266 0.0000
vt 0.7734 0.2791 0.0000
vt 0.5045 0.2266 0.0000
vt 0.0100 0.8265 0.0000
vt 0.0100 0.7740 0.0000
vt 0.1026 0.7740 0.0000
vt 0.1026 0.8265 0.0000
vt 0.3716 0.6597 0.0000
vt 0.3716 0.7122 0.0000
vt 0.1026 0.7122 0.0000
vt 0.1026 0.6597 0.0000
vt 0.7734 0.6066 0.0000
vt 0.7734 0.4431 0.0000
vt 0.7734 0.3408 0.0000
vt 0.7645 0.8232 0.0000
vt 0.7645 0.6597 0.0000
vt 0.3716 0.7740 0.0000
vt 0.7734 0.3934 0.0000
vt 0.4118 0.2266 0.0000
vt 0.3716 0.8265 0.0000
vt 0.0100 0.6597 0.0000
vt 0.0100 0.7122 0.0000
vt 0.8156 0.6192 0.0000
vt 0.9791 0.6192 0.0000
vt 0.9900 0.6284 0.0000
vt 0.8047 0.6284 0.0000
vt 0.9791 0.5666 0.0000
vt 0.9791 0.5049 0.0000
vt 0.9900 0.5049 0.0000
vt 0.9900 0.5666 0.0000
vt 0.9791 0.4523 0.0000
vt 0.8156 0.4523 0.0000
vt 0.8047 0.4431 0.0000
vt 0.9900 0.4431 0.0000
vt 0.8260 0.4831 0.0000
vt 0.9186 0.4831 0.0000
vt 0.9186 0.4939 0.0000
vt 0.8260 0.4939 0.0000
vt 0.8156 0.5666 0.0000
vt 0.8047 0.5666 0.0000
vt 0.8877 0.5127 0.0000
vt 0.8260 0.5127 0.0000
vt 0.8260 0.5018 0.0000
vt 0.8877 0.5018 0.0000
vt 0.8156 0.5049 0.0000
vt 0.8047 0.5049 0.0000
vt 0.9186 0.4752 0.0000
vt 0.8260 0.4752 0.0000
vt 0.8260 0.4644 0.0000
vt 0.9186 0.4644 0.0000
# 116 texture coords

g Box001
usemtl wire_166229229
s 4
f 1/1/1 2/2/1 3/3/1 4/4/1 
s 8
f 5/5/2 6/6/2 7/7/2 8/8/2 
s 16
f 9/9/3 10/10/3 11/11/3 12/12/3 
s 32
f 13/13/4 14/14/4 15/15/4 16/16/4 
s 4
f 4/4/1 3/3/1 17/17/1 18/18/1 
f 2/2/1 1/1/1 19/19/1 20/20/1 
s 16
f 12/12/3 11/11/3 14/21/3 13/22/3 
f 9/9/3 2/23/3 20/24/3 8/25/3 
s 64
f 21/26/5 22/27/5 6/28/5 5/29/5 
f 23/30/5 4/31/5 18/32/5 16/33/5 
s 8
f 5/5/2 8/8/2 20/34/2 19/35/2 
s 16
f 9/9/3 12/12/3 3/36/3 2/23/3 
s 32
f 13/13/4 16/16/4 18/37/4 17/38/4 
s 64
f 23/30/5 21/26/5 1/39/5 4/31/5 
s 16
f 12/12/3 13/22/3 17/40/3 3/36/3 
f 9/9/3 8/25/3 7/41/3 10/10/3 
s 64
f 21/26/5 5/29/5 19/42/5 1/39/5 
f 23/30/5 16/33/5 15/43/5 24/44/5 
s 4
f 25/45/6 26/46/6 27/47/6 28/48/6 
s 8
f 29/49/4 30/50/4 31/51/4 32/52/4 
s 16
f 33/53/5 34/54/5 35/55/5 36/56/5 
s 32
f 37/57/2 38/58/2 39/59/2 40/60/2 
s 4
f 41/61/6 25/45/6 28/48/6 42/62/6 
f 43/63/6 27/47/6 26/46/6 44/64/6 
s 16
f 38/65/5 33/53/5 36/56/5 39/66/5 
f 44/67/5 26/68/5 35/55/5 32/69/5 
s 64
f 30/70/3 45/71/3 46/72/3 31/73/3 
f 42/74/3 28/75/3 47/76/3 40/77/3 
s 8
f 44/78/4 32/52/4 31/51/4 43/79/4 
s 16
f 25/80/5 36/56/5 35/55/5 26/68/5 
s 32
f 42/81/2 40/60/2 39/59/2 41/82/2 
s 64
f 27/83/3 46/72/3 47/76/3 28/75/3 
s 16
f 41/84/5 39/66/5 36/56/5 25/80/5 
f 29/85/5 32/69/5 35/55/5 34/54/5 
s 64
f 43/86/3 31/73/3 46/72/3 27/83/3 
f 37/87/3 40/77/3 47/76/3 48/88/3 
s 1
f 30/89/6 29/90/6 7/91/6 6/92/6 
f 34/93/6 33/94/6 11/95/6 10/96/6 
f 38/97/6 37/98/6 15/99/6 14/100/6 
f 33/94/6 38/97/6 14/100/6 11/95/6 
s 2
f 46/101/7 45/102/7 22/103/7 21/104/7 
s 1
f 45/105/6 30/89/6 6/92/6 22/106/6 
f 47/107/6 46/108/6 21/109/6 23/110/6 
f 29/90/6 34/93/6 10/96/6 7/91/6 
f 37/98/6 48/111/6 24/112/6 15/99/6 
s 2
f 48/113/2 47/114/2 23/115/2 24/116/2 
# 46 polygons

